<mxfile host="Electron" modified="2024-04-02T08:38:56.471Z" agent="Mozilla/5.0 (Windows NT 10.0; Win64; x64) AppleWebKit/537.36 (KHTML, like Gecko) draw.io/23.1.5 Chrome/120.0.6099.109 Electron/28.1.0 Safari/537.36" etag="KJWWhCX-HrLO_u_4-MX1" version="23.1.5" type="device">
  <diagram name="Страница — 1" id="4yH80kUzvXJpZru1wsrU">
    <mxGraphModel dx="913" dy="547" grid="0" gridSize="10" guides="1" tooltips="1" connect="1" arrows="1" fold="1" page="1" pageScale="1" pageWidth="827" pageHeight="1169" math="0" shadow="0">
      <root>
        <mxCell id="0" />
        <mxCell id="1" parent="0" />
        <mxCell id="zWoP8p3UHELozqPJixs7-2" value="Business Logic" style="html=1;dropTarget=0;whiteSpace=wrap;" vertex="1" parent="1">
          <mxGeometry x="457" y="303" width="180" height="90" as="geometry" />
        </mxCell>
        <mxCell id="zWoP8p3UHELozqPJixs7-3" value="" style="shape=module;jettyWidth=8;jettyHeight=4;" vertex="1" parent="zWoP8p3UHELozqPJixs7-2">
          <mxGeometry x="1" width="20" height="20" relative="1" as="geometry">
            <mxPoint x="-27" y="7" as="offset" />
          </mxGeometry>
        </mxCell>
        <mxCell id="zWoP8p3UHELozqPJixs7-4" value="Data Access" style="html=1;dropTarget=0;whiteSpace=wrap;" vertex="1" parent="1">
          <mxGeometry x="457" y="452" width="180" height="90" as="geometry" />
        </mxCell>
        <mxCell id="zWoP8p3UHELozqPJixs7-5" value="" style="shape=module;jettyWidth=8;jettyHeight=4;" vertex="1" parent="zWoP8p3UHELozqPJixs7-4">
          <mxGeometry x="1" width="20" height="20" relative="1" as="geometry">
            <mxPoint x="-27" y="7" as="offset" />
          </mxGeometry>
        </mxCell>
        <mxCell id="zWoP8p3UHELozqPJixs7-6" value="" style="endArrow=classic;html=1;rounded=0;entryX=0.5;entryY=1;entryDx=0;entryDy=0;exitX=0.5;exitY=0;exitDx=0;exitDy=0;edgeStyle=orthogonalEdgeStyle;" edge="1" parent="1" source="zWoP8p3UHELozqPJixs7-4" target="zWoP8p3UHELozqPJixs7-2">
          <mxGeometry width="50" height="50" relative="1" as="geometry">
            <mxPoint x="531" y="448" as="sourcePoint" />
            <mxPoint x="581" y="398" as="targetPoint" />
          </mxGeometry>
        </mxCell>
        <mxCell id="zWoP8p3UHELozqPJixs7-7" value="Notification&amp;nbsp;&lt;br&gt;system" style="html=1;dropTarget=0;whiteSpace=wrap;" vertex="1" parent="1">
          <mxGeometry x="698" y="303" width="180" height="90" as="geometry" />
        </mxCell>
        <mxCell id="zWoP8p3UHELozqPJixs7-8" value="" style="shape=module;jettyWidth=8;jettyHeight=4;" vertex="1" parent="zWoP8p3UHELozqPJixs7-7">
          <mxGeometry x="1" width="20" height="20" relative="1" as="geometry">
            <mxPoint x="-27" y="7" as="offset" />
          </mxGeometry>
        </mxCell>
        <mxCell id="zWoP8p3UHELozqPJixs7-9" value="" style="endArrow=classic;html=1;rounded=0;entryX=1;entryY=0.5;entryDx=0;entryDy=0;exitX=0;exitY=0.5;exitDx=0;exitDy=0;" edge="1" parent="1" source="zWoP8p3UHELozqPJixs7-7" target="zWoP8p3UHELozqPJixs7-2">
          <mxGeometry width="50" height="50" relative="1" as="geometry">
            <mxPoint x="531" y="448" as="sourcePoint" />
            <mxPoint x="581" y="398" as="targetPoint" />
          </mxGeometry>
        </mxCell>
        <mxCell id="zWoP8p3UHELozqPJixs7-10" value="User Interface&amp;nbsp;" style="html=1;dropTarget=0;whiteSpace=wrap;" vertex="1" parent="1">
          <mxGeometry x="231" y="449" width="180" height="90" as="geometry" />
        </mxCell>
        <mxCell id="zWoP8p3UHELozqPJixs7-11" value="" style="shape=module;jettyWidth=8;jettyHeight=4;" vertex="1" parent="zWoP8p3UHELozqPJixs7-10">
          <mxGeometry x="1" width="20" height="20" relative="1" as="geometry">
            <mxPoint x="-27" y="7" as="offset" />
          </mxGeometry>
        </mxCell>
        <mxCell id="zWoP8p3UHELozqPJixs7-13" value="Controller" style="html=1;dropTarget=0;whiteSpace=wrap;" vertex="1" parent="1">
          <mxGeometry x="231" y="303" width="180" height="90" as="geometry" />
        </mxCell>
        <mxCell id="zWoP8p3UHELozqPJixs7-14" value="" style="shape=module;jettyWidth=8;jettyHeight=4;" vertex="1" parent="zWoP8p3UHELozqPJixs7-13">
          <mxGeometry x="1" width="20" height="20" relative="1" as="geometry">
            <mxPoint x="-27" y="7" as="offset" />
          </mxGeometry>
        </mxCell>
        <mxCell id="zWoP8p3UHELozqPJixs7-15" value="" style="endArrow=classic;html=1;rounded=0;entryX=0;entryY=0.5;entryDx=0;entryDy=0;exitX=1;exitY=0.5;exitDx=0;exitDy=0;" edge="1" parent="1" source="zWoP8p3UHELozqPJixs7-13" target="zWoP8p3UHELozqPJixs7-2">
          <mxGeometry width="50" height="50" relative="1" as="geometry">
            <mxPoint x="529" y="497" as="sourcePoint" />
            <mxPoint x="579" y="447" as="targetPoint" />
          </mxGeometry>
        </mxCell>
        <mxCell id="zWoP8p3UHELozqPJixs7-19" value="" style="endArrow=classic;html=1;rounded=0;entryX=0.5;entryY=1;entryDx=0;entryDy=0;exitX=0.5;exitY=0;exitDx=0;exitDy=0;" edge="1" parent="1" source="zWoP8p3UHELozqPJixs7-10" target="zWoP8p3UHELozqPJixs7-13">
          <mxGeometry width="50" height="50" relative="1" as="geometry">
            <mxPoint x="513" y="435" as="sourcePoint" />
            <mxPoint x="563" y="385" as="targetPoint" />
          </mxGeometry>
        </mxCell>
      </root>
    </mxGraphModel>
  </diagram>
</mxfile>
